<?xml version="1.0" encoding="utf-8"?>
<!-- Generator: Adobe Illustrator 17.0.0, SVG Export Plug-In . SVG Version: 6.00 Build 0)  -->
<!DOCTYPE svg PUBLIC "-//W3C//DTD SVG 1.1//EN" "http://www.w3.org/Graphics/SVG/1.1/DTD/svg11.dtd">
<svg version="1.1" id="Capa_1" xmlns="http://www.w3.org/2000/svg" xmlns:xlink="http://www.w3.org/1999/xlink" x="0px" y="0px"
	 width="30px" height="30px" viewBox="33.062 33.061 30 30" enable-background="new 33.062 33.061 30 30" xml:space="preserve">
<g>
	<path fill="#FFFFFF" d="M54.311,35.567l-3.242-0.005c-3.642,0-5.996,2.415-5.996,6.153v2.837h-3.26c-0.282,0-0.51,0.228-0.51,0.51
		v4.11c0,0.282,0.228,0.51,0.51,0.51h3.26v10.371c0,0.282,0.228,0.51,0.51,0.51h4.253c0.282,0,0.51-0.228,0.51-0.51V49.681h3.811
		c0.282,0,0.51-0.228,0.51-0.51l0.002-4.11c0-0.135-0.054-0.265-0.149-0.36c-0.095-0.096-0.225-0.15-0.361-0.15h-3.813v-2.405
		c0-1.156,0.275-1.743,1.781-1.743l2.184-0.001c0.281,0,0.51-0.228,0.51-0.51v-3.816C54.82,35.795,54.592,35.567,54.311,35.567z"/>
</g>
</svg>
