<?xml version="1.0" encoding="utf-8"?>
<!-- Generator: Adobe Illustrator 17.0.0, SVG Export Plug-In . SVG Version: 6.00 Build 0)  -->
<!DOCTYPE svg PUBLIC "-//W3C//DTD SVG 1.1//EN" "http://www.w3.org/Graphics/SVG/1.1/DTD/svg11.dtd">
<svg version="1.1" id="Capa_1" xmlns="http://www.w3.org/2000/svg" xmlns:xlink="http://www.w3.org/1999/xlink" x="0px" y="0px"
	 width="30px" height="30px" viewBox="204.268 204.268 30 30" enable-background="new 204.268 204.268 30 30" xml:space="preserve">
<g>
	<path fill="#FFFFFF" d="M230.824,207.712c-0.629-0.63-1.384-0.944-2.262-0.944h-18.587c-0.879,0-1.633,0.315-2.262,0.944
		c-0.629,0.629-0.944,1.383-0.944,2.262v18.587c0,0.879,0.315,1.633,0.944,2.262c0.63,0.629,1.384,0.944,2.262,0.944h18.587
		c0.878,0,1.633-0.315,2.262-0.944c0.63-0.629,0.944-1.384,0.944-2.262v-18.587C231.768,209.095,231.454,208.342,230.824,207.712z
		 M215.745,215.777c0.982-0.949,2.162-1.424,3.54-1.424c1.389,0,2.574,0.475,3.556,1.424c0.982,0.949,1.473,2.097,1.473,3.442
		c0,1.345-0.491,2.493-1.473,3.442c-0.982,0.95-2.167,1.425-3.556,1.425c-1.378,0-2.558-0.475-3.54-1.425
		c-0.982-0.949-1.473-2.097-1.473-3.442C214.271,217.874,214.762,216.726,215.745,215.777z M228.936,227.894
		c0,0.282-0.098,0.518-0.293,0.708c-0.196,0.19-0.429,0.285-0.7,0.285h-17.399c-0.282,0-0.518-0.095-0.708-0.285
		c-0.19-0.19-0.285-0.426-0.285-0.708v-10.547h2.295c-0.217,0.684-0.325,1.395-0.325,2.132c0,2.084,0.759,3.86,2.279,5.331
		c1.519,1.47,3.348,2.205,5.485,2.205c1.411,0,2.713-0.337,3.907-1.009c1.194-0.673,2.137-1.587,2.832-2.743
		c0.695-1.156,1.042-2.417,1.042-3.784c0-0.738-0.109-1.448-0.326-2.132h2.197L228.936,227.894L228.936,227.894L228.936,227.894z
		 M228.936,213.36c0,0.315-0.108,0.581-0.326,0.798c-0.217,0.217-0.483,0.326-0.797,0.326h-2.832c-0.314,0-0.581-0.108-0.798-0.326
		c-0.217-0.217-0.325-0.483-0.325-0.798v-2.685c0-0.304,0.108-0.567,0.325-0.789c0.217-0.222,0.483-0.334,0.798-0.334h2.832
		c0.315,0,0.581,0.111,0.797,0.334c0.217,0.223,0.326,0.486,0.326,0.789V213.36z"/>
</g>
</svg>
