<?xml version="1.0" encoding="utf-8"?>
<!-- Generator: Adobe Illustrator 17.0.0, SVG Export Plug-In . SVG Version: 6.00 Build 0)  -->
<!DOCTYPE svg PUBLIC "-//W3C//DTD SVG 1.1//EN" "http://www.w3.org/Graphics/SVG/1.1/DTD/svg11.dtd">
<svg version="1.1" id="Capa_1" xmlns="http://www.w3.org/2000/svg" xmlns:xlink="http://www.w3.org/1999/xlink" x="0px" y="0px"
	 width="30px" height="30px" viewBox="111 57 30 30" enable-background="new 111 57 30 30" xml:space="preserve">
<g>
	<path id="LinkedIn_3_" fill="#FFFFFF" d="M139.082,74.829V84.5h-5.61v-9.027c0-2.27-0.809-3.812-2.839-3.812
		c-1.552,0-2.468,1.044-2.877,2.049c-0.147,0.362-0.192,0.869-0.192,1.369v9.42h-5.604c0,0,0.075-15.284,0-16.867h5.605v2.391
		c-0.008,0.02-0.024,0.036-0.032,0.058h0.032v-0.058c0.749-1.149,2.076-2.786,5.055-2.786
		C136.318,67.237,139.082,69.647,139.082,74.829z M116.092,59.5c-1.918,0-3.173,1.258-3.173,2.917c0,1.614,1.219,2.915,3.101,2.915
		h0.034c1.96,0,3.174-1.301,3.174-2.915C119.19,60.758,118.014,59.5,116.092,59.5z M113.253,84.5h5.607V67.631h-5.607V84.5z"/>
</g>
</svg>
