<?xml version="1.0" encoding="utf-8"?>
<!-- Generator: Adobe Illustrator 17.0.0, SVG Export Plug-In . SVG Version: 6.00 Build 0)  -->
<!DOCTYPE svg PUBLIC "-//W3C//DTD SVG 1.1//EN" "http://www.w3.org/Graphics/SVG/1.1/DTD/svg11.dtd">
<svg version="1.1" id="Layer_1" xmlns="http://www.w3.org/2000/svg" xmlns:xlink="http://www.w3.org/1999/xlink" x="0px" y="0px"
	 width="30px" height="30px" viewBox="-7 -7 30 30" enable-background="new -7 -7 30 30" xml:space="preserve">
<path fill="#FFFFFF" d="M22.128-0.83c-1.06,0.53-2.119,0.706-3.355,0.883c1.236-0.706,2.119-1.766,2.472-3.179
	c-1.06,0.706-2.296,1.06-3.709,1.413c-1.06-1.06-2.649-1.766-4.238-1.766c-3.002,0-5.651,2.649-5.651,5.828
	c0,0.53,0,0.883,0.177,1.236C3.055,3.408-1.36,1.113-4.185-2.419c-0.53,0.883-0.706,1.766-0.706,3.002
	c0,1.943,1.06,3.709,2.649,4.768c-0.883,0-1.766-0.353-2.649-0.706l0,0c0,2.826,1.943,5.121,4.592,5.651
	c-0.53,0.177-1.06,0.177-1.589,0.177c-0.353,0-0.706,0-1.06-0.177c0.706,2.296,2.826,4.062,5.475,4.062
	c-1.943,1.589-4.415,2.472-7.241,2.472c-0.53,0-0.883,0-1.413,0c2.649,1.589,5.651,2.649,8.83,2.649
	c10.596,0,16.424-8.83,16.424-16.424c0-0.177,0-0.53,0-0.706C20.362,1.466,21.421,0.406,22.128-0.83z"/>
</svg>
