<?xml version="1.0" encoding="utf-8"?>
<!-- Generator: Adobe Illustrator 17.0.0, SVG Export Plug-In . SVG Version: 6.00 Build 0)  -->
<!DOCTYPE svg PUBLIC "-//W3C//DTD SVG 1.1//EN" "http://www.w3.org/Graphics/SVG/1.1/DTD/svg11.dtd">
<svg version="1.1" id="Capa_1" xmlns="http://www.w3.org/2000/svg" xmlns:xlink="http://www.w3.org/1999/xlink" x="0px" y="0px"
	 width="30px" height="30px" viewBox="33.438 33.438 30 30" enable-background="new 33.438 33.438 30 30" xml:space="preserve">
<g>
	<path fill="#FFFFFF" d="M61.218,42.179c-0.324-1.408-1.476-2.447-2.862-2.602c-3.283-0.366-6.606-0.368-9.914-0.366
		c-3.308-0.002-6.632,0-9.915,0.366c-1.386,0.155-2.537,1.194-2.861,2.602c-0.461,2.005-0.467,4.194-0.467,6.259
		s0,4.253,0.461,6.258c0.324,1.408,1.475,2.447,2.861,2.602c3.283,0.367,6.606,0.369,9.915,0.367c3.309,0.002,6.631,0,9.914-0.367
		c1.386-0.155,2.538-1.194,2.862-2.602c0.462-2.005,0.463-4.194,0.463-6.258C61.676,46.373,61.679,44.184,61.218,42.179z
		 M45.021,52.547c0-2.929,0-5.827,0-8.756c2.806,1.464,5.593,2.918,8.417,4.391C50.623,49.643,47.834,51.088,45.021,52.547z"/>
</g>
</svg>
